Coordinates
version=1
nRows=65
nColumns=12
inDegrees=yes

Units are S.I. units (second, meters, Newtons, ...)
Angles are in degrees

endheader
time	SC_y	SC_z	SC_x	AC_y	AC_z	AC_x	GH_y	GH_z	GH_yy	EL_x	PS_y
       0.0              -26.11          25.49          31.53          66.52         -2.833         -11.15          -76.6          -16.6          60.07          125.3          144.1
   0.03387              -26.11          25.49          31.53          66.52         -2.835         -11.15         -76.57         -16.59          60.04          125.3          144.1
   0.06773               -26.1          25.49          31.53          66.52         -2.837         -11.15         -76.54         -16.57          60.02          125.3          144.1
    0.1016               -26.1          25.49          31.53          66.52          -2.84         -11.14         -76.51         -16.56          59.99          125.3          144.0
    0.1355               -26.1          25.49          31.53          66.52         -2.843         -11.14         -76.48         -16.55          59.96          125.3          144.0
    0.1693               -26.1          25.49          31.53          66.52         -2.846         -11.14         -76.44         -16.53          59.93          125.2          144.0
    0.2032               -26.1          25.49          31.54          66.52         -2.849         -11.14         -76.41         -16.51           59.9          125.2          144.0
    0.2371              -26.09          25.49          31.54          66.52         -2.852         -11.13         -76.36          -16.5          59.86          125.2          144.0
    0.2709              -26.09          25.49          31.54          66.52         -2.856         -11.13         -76.32         -16.48          59.83          125.2          144.0
    0.3048              -26.09          25.49          31.54          66.52          -2.86         -11.12         -76.28         -16.46          59.79          125.2          144.0
    0.3387              -26.09          25.49          31.55          66.52         -2.864         -11.12         -76.23         -16.44          59.74          125.2          144.0
    0.3725              -26.08          25.49          31.55          66.51         -2.868         -11.11         -76.17         -16.41           59.7          125.2          144.0
    0.4064              -26.08           25.5          31.55          66.51         -2.873         -11.11         -76.11         -16.39          59.65          125.2          144.0
    0.4403              -26.08           25.5          31.56          66.51         -2.878          -11.1         -76.05         -16.36           59.6          125.1          143.9
    0.4741              -26.07           25.5          31.56          66.51         -2.884          -11.1         -75.99         -16.33          59.54          125.1          143.9
     0.508              -26.07           25.5          31.56          66.51          -2.89         -11.09         -75.91          -16.3          59.47          125.1          143.9
    0.5418              -26.06           25.5          31.57          66.51         -2.897         -11.08         -75.83         -16.27          59.41          125.1          143.9
    0.5757              -26.06           25.5          31.57          66.51         -2.904         -11.07         -75.75         -16.23          59.33          125.1          143.9
    0.6096              -26.05           25.5          31.58          66.51         -2.912         -11.07         -75.65         -16.19          59.25          125.0          143.8
    0.6434              -26.05           25.5          31.58          66.51          -2.92         -11.06         -75.55         -16.14          59.16          125.0          143.8
    0.6773              -26.04           25.5          31.59           66.5          -2.93         -11.05         -75.44         -16.09          59.06          125.0          143.8
    0.7112              -26.04          25.51           31.6           66.5          -2.94         -11.03         -75.31         -16.04          58.96          124.9          143.8
     0.745              -26.03          25.51           31.6           66.5         -2.952         -11.02         -75.17         -15.98          58.84          124.9          143.7
    0.7789              -26.02          25.51          31.61           66.5         -2.965         -11.01         -75.02         -15.91          58.71          124.9          143.7
    0.8128              -26.01          25.51          31.62           66.5         -2.979         -10.99         -74.85         -15.84          58.56          124.8          143.6
    0.8466               -26.0          25.51          31.63          66.49         -2.995         -10.97         -74.66         -15.76           58.4          124.8          143.6
    0.8805              -25.99          25.52          31.64          66.49         -3.012         -10.96         -74.45         -15.66          58.21          124.7          143.5
    0.9144              -25.97          25.52          31.65          66.49         -3.032         -10.93         -74.21         -15.56          58.01          124.6          143.5
    0.9482              -25.96          25.52          31.67          66.48         -3.055         -10.91         -73.94         -15.44          57.78          124.6          143.4
    0.9821              -25.94          25.53          31.69          66.48          -3.08         -10.88         -73.63         -15.31          57.51          124.5          143.4
     1.016              -25.92          25.53           31.7          66.47          -3.11         -10.85         -73.28         -15.16          57.21          124.4          143.3
      1.05               -25.9          25.54          31.73          66.47         -3.143         -10.81         -72.88         -14.98          56.86          124.3          143.2
     1.084              -25.88          25.54          31.75          66.46         -3.182         -10.77         -72.42         -14.78          56.47          124.1          143.1
     1.118              -25.85          25.55          31.78          66.45         -3.227         -10.72         -71.88         -14.55           56.0          124.0          142.9
     1.151              -25.81          25.56          31.81          66.44          -3.28         -10.66         -71.25         -14.27          55.46          123.8          142.8
     1.185              -25.77          25.57          31.85          66.43         -3.342         -10.59         -70.51         -13.95          54.82          123.6          142.6
     1.219              -25.72          25.58           31.9          66.42         -3.415         -10.51         -69.63         -13.56          54.06          123.4          142.4
     1.253              -25.66           25.6          31.96           66.4         -3.504         -10.41         -68.57          -13.1          53.15          123.1          142.1
     1.287              -25.59          25.61          32.03          66.39         -3.611          -10.3         -67.29         -12.55          52.05          122.7          141.8
     1.321               -25.5          25.63          32.11          66.36         -3.741         -10.15         -65.73         -11.87           50.7          122.3          141.4
     1.355               -25.4          25.66          32.22          66.33         -3.903         -9.975          -63.8         -11.03          49.04          121.8          141.0
     1.388              -25.26          25.69          32.35           66.3         -4.104         -9.753         -61.39         -9.981          46.96          121.1          140.4
     1.422               -25.1          25.73          32.51          66.26         -4.357         -9.474         -58.36         -8.662          44.35          120.3          139.7
     1.456              -24.88          25.79          32.72           66.2         -4.679          -9.12         -54.51         -6.985          41.03          119.2          138.7
      1.49              -24.61          25.85          32.98          66.13         -5.091         -8.666         -49.57         -4.839          36.79          117.9          137.5
     1.524              -24.26          25.94          33.32          66.04          -5.62         -8.083         -43.25         -2.086          31.33          116.1          136.0
     1.558              -23.81          26.05          33.76          65.92         -6.295         -7.339         -35.16          1.432          24.37          113.9          134.1
     1.592              -23.25          26.18          34.31          65.77         -7.145         -6.404          -25.0          5.855          15.61          111.1          131.6
     1.626              -22.56          26.35          34.97          65.59          -8.18         -5.264         -12.61          11.24          4.943          107.7          128.6
     1.659              -21.76          26.54          35.75          65.38          -9.38         -3.942          1.748          17.49         -7.425          103.8          125.1
     1.693               -20.9          26.75          36.58          65.16         -10.68         -2.511          17.29          24.26         -20.82          99.53          121.4
     1.727              -20.04          26.96          37.42          64.93         -11.98         -1.081          32.84          31.02         -34.21          95.26          117.6
     1.761              -19.24          27.15           38.2          64.72         -13.18         0.2408           47.2          37.27         -46.58          91.32          114.2
     1.795              -18.55          27.32          38.86          64.54         -14.21          1.381          59.59          42.66         -57.25          87.93          111.2
     1.829              -17.99          27.46          39.41           64.4         -15.06          2.316          69.75          47.08         -66.01          85.14          108.7
     1.863              -17.54          27.57          39.85          64.28         -15.74           3.06          77.83           50.6         -72.97          82.92          106.8
     1.896              -17.19          27.65          40.19          64.19         -16.27          3.643          84.16          53.35         -78.42          81.18          105.2
      1.93              -16.92          27.72          40.45          64.11         -16.68          4.097           89.1           55.5         -82.67          79.83          104.0
     1.964               -16.7          27.77          40.66          64.06          -17.0          4.451          92.95          57.18         -85.99          78.77          103.1
     1.998              -16.54          27.81          40.82          64.01         -17.25           4.73          95.98          58.49          -88.6          77.94          102.4
     2.032               -16.4          27.84          40.95          63.98         -17.46          4.952          98.38          59.54         -90.67          77.28          101.8
     2.066               -16.3          27.87          41.06          63.95         -17.62          5.129          100.3          60.38         -92.33          76.75          101.3
       2.1              -16.21          27.89          41.14          63.93         -17.75          5.273          101.9          61.06         -93.68          76.32          101.0
     2.134              -16.14          27.91          41.21          63.91         -17.85          5.391          103.2          61.62         -94.78          75.97          100.6
     2.167              -16.08          27.92          41.27           63.9         -17.94          5.488          104.2          62.08         -95.69          75.68          100.4
